<svg xmlns="http://www.w3.org/2000/svg" version="1.1" xmlns:xlink="http://www.w3.org/1999/xlink" width="512" height="512" x="0" y="0" viewBox="0 0 511 511.999" style="enable-background:new 0 0 512 512" xml:space="preserve">
    <g>
        <path d="M391.629 512H15.676C7.296 512 .5 505.203.5 496.82V15.18C.5 6.797 7.297 0 15.676 0h271.332c8.383 0 15.176 6.797 15.176 15.18 0 8.382-6.793 15.175-15.176 15.175H30.855v451.29h345.598V119.8c0-8.383 6.793-15.18 15.176-15.18s15.18 6.797 15.18 15.18v377.02c0 8.382-6.797 15.179-15.18 15.179zm0 0" fill="#6b7280" opacity="1" data-original="#000000"></path>
        <path d="M391.629 134.977H287.008c-8.383 0-15.18-6.797-15.18-15.176V15.18a15.18 15.18 0 0 1 25.914-10.734l104.617 104.62c4.344 4.344 5.641 10.871 3.293 16.543s-7.882 9.368-14.023 9.368zm-89.445-30.356h52.8l-52.8-52.8zM140.29 296.441c-3.93 0-7.856-1.515-10.83-4.539l-43.624-44.394c-5.805-5.906-5.805-15.371 0-21.278l43.625-44.394c5.875-5.977 15.484-6.063 21.465-.184 5.98 5.875 6.062 15.485.187 21.461l-33.172 33.754 33.172 33.754c5.875 5.98 5.793 15.59-.187 21.465a15.118 15.118 0 0 1-10.637 4.355zM264.102 296.441c-3.84 0-7.68-1.449-10.637-4.355-5.977-5.875-6.063-15.484-.188-21.461l33.172-33.754-33.172-33.754c-5.875-5.98-5.789-15.59.188-21.465 5.98-5.875 15.59-5.789 21.465.188l43.625 44.39c5.804 5.907 5.804 15.375 0 21.278l-43.625 44.394a15.137 15.137 0 0 1-10.828 4.54zM179.984 296.441a15.12 15.12 0 0 1-7.574-2.035c-7.258-4.191-9.746-13.472-5.555-20.734l44.391-76.89c4.191-7.259 13.477-9.75 20.734-5.555 7.258 4.191 9.747 13.472 5.555 20.734l-44.39 76.89c-2.813 4.868-7.915 7.59-13.16 7.59zM296.672 367.305H107.719c-8.383 0-15.176-6.797-15.176-15.18s6.793-15.176 15.176-15.176h188.953c8.383 0 15.176 6.793 15.176 15.176s-6.793 15.18-15.176 15.18zM296.672 431.05H107.719c-8.383 0-15.176-6.796-15.176-15.175 0-8.383 6.793-15.18 15.176-15.18h188.953c8.383 0 15.176 6.797 15.176 15.18 0 8.379-6.793 15.176-15.176 15.176zm0 0" fill="#6b7280" opacity="1" data-original="#000000"></path>
    </g>
</svg>