<svg xmlns="http://www.w3.org/2000/svg" version="1.1" xmlns:xlink="http://www.w3.org/1999/xlink" width="512" height="512" x="0" y="0" viewBox="0 0 512 512" style="enable-background:new 0 0 512 512" xml:space="preserve">
    <g>
        <path d="M403.027 214.71a36.968 36.968 0 0 0-21.849 7.117c-4.173-15.955-18.712-27.763-35.958-27.763a36.977 36.977 0 0 0-22.893 7.908c-5.211-14.236-18.894-24.424-34.913-24.424a36.951 36.951 0 0 0-20.645 6.276v-72.342c0-20.49-16.67-37.161-37.162-37.161-20.491 0-37.161 16.67-37.161 37.161v197.017a6.56 6.56 0 0 1-3.781 5.928 6.508 6.508 0 0 1-8.42-2.66l-24.779-42.919c-14.799-25.632-47.691-34.444-73.323-19.646-4.776 2.757-8.192 7.21-9.619 12.537s-.694 10.891 2.064 15.667l93.36 161.66C193.929 484.054 242.34 512 294.29 512c80.448 0 145.898-65.449 145.898-145.897V251.87c0-20.49-16.67-37.16-37.161-37.16zm20.645 151.393c0 71.341-58.04 129.381-129.382 129.381-46.069 0-89-24.782-112.04-64.677l-93.36-161.66c-.744-1.289-.578-2.516-.413-3.133s.635-1.763 1.924-2.508c5.726-3.306 12.08-4.995 18.519-4.995 3.227 0 6.477.425 9.678 1.282 9.588 2.569 17.601 8.718 22.564 17.314l24.779 42.919c6.016 10.419 18.778 14.453 29.689 9.376 8.099-3.767 13.332-11.972 13.332-20.903V111.483c0-11.384 9.261-20.644 20.645-20.644s20.645 9.261 20.645 20.644v152.776c0 4.561 3.697 8.258 8.258 8.258s8.258-3.697 8.258-8.258V214.71c0-11.384 9.262-20.644 20.645-20.644 11.384 0 20.645 9.261 20.645 20.644v49.549c0 4.561 3.697 8.258 8.258 8.258s8.258-3.697 8.258-8.258v-33.033c0-11.384 9.262-20.644 20.645-20.644s20.645 9.261 20.645 20.644v37.162c0 4.561 3.697 8.258 8.258 8.258s8.258-3.697 8.258-8.258V251.87c0-11.384 9.262-20.644 20.645-20.644s20.645 9.261 20.645 20.644zM229.607 57.806a8.258 8.258 0 0 0 8.258-8.258V28.194l21 21c1.613 1.612 3.726 2.418 5.84 2.418s4.227-.806 5.84-2.418a8.258 8.258 0 0 0 0-11.679L235.446 2.418a8.259 8.259 0 0 0-11.678 0l-35.097 35.097a8.258 8.258 0 0 0 11.678 11.679l20.999-21v21.354a8.26 8.26 0 0 0 8.259 8.258z" fill="#6b7280" opacity="1" data-original="#000000"></path>
        <path d="M175.93 111.483a8.258 8.258 0 0 0-8.258-8.258h-21.354l20.999-20.999a8.258 8.258 0 0 0-11.678-11.679l-35.097 35.097a8.258 8.258 0 0 0 0 11.679l35.097 35.097c1.613 1.612 3.726 2.418 5.839 2.418s4.227-.806 5.839-2.418a8.258 8.258 0 0 0 0-11.679l-20.999-20.999h21.354a8.26 8.26 0 0 0 8.258-8.259zM291.897 152.42c1.613 1.612 3.726 2.418 5.84 2.418s4.227-.806 5.84-2.418l35.097-35.097a8.258 8.258 0 0 0 0-11.679l-35.097-35.097a8.258 8.258 0 0 0-11.679 11.679l20.999 20.998h-21.353c-4.561 0-8.258 3.697-8.258 8.258s3.697 8.258 8.258 8.258h21.355l-21.001 21a8.259 8.259 0 0 0-.001 11.68z" fill="#6b7280" opacity="1" data-original="#000000"></path>
    </g>
</svg>